<?xml version="1.0" encoding="utf-8"?><!-- Uploaded to: SVG Repo, www.svgrepo.com, Generator: SVG Repo Mixer Tools -->
<svg width="800px" height="800px" viewBox="0 0 24 24" fill="none" xmlns="http://www.w3.org/2000/svg">
<path fill-rule="evenodd" clip-rule="evenodd" d="M23 4C23 2.34315 21.6569 1 20 1H4C2.34315 1 1 2.34315 1 4V20C1 21.6569 2.34315 23 4 23H20C21.6569 23 23 21.6569 23 20V4ZM21 4C21 3.44772 20.5523 3 20 3H4C3.44772 3 3 3.44772 3 4V20C3 20.5523 3.44772 21 4 21H20C20.5523 21 21 20.5523 21 20V4Z" fill="#0F0F0F"/>
<path d="M16 8C16 10.2091 14.2091 12 12 12C9.79086 12 8 10.2091 8 8C8 5.79086 9.79086 4 12 4C14.2091 4 16 5.79086 16 8ZM9.97716 8C9.97716 9.11719 10.8828 10.0228 12 10.0228C13.1172 10.0228 14.0228 9.11719 14.0228 8C14.0228 6.88281 13.1172 5.97716 12 5.97716C10.8828 5.97716 9.97716 6.88281 9.97716 8Z" fill="#0F0F0F"/>
<path fill-rule="evenodd" clip-rule="evenodd" d="M5.39909 16.6808C6.49015 13.8286 9.47114 13 12 13C14.5289 13 17.5099 13.8286 18.6009 16.6808C18.9505 17.5948 18.6826 18.4756 18.1363 19.0778C17.6103 19.6576 16.8215 20 16 20H8C7.17849 20 6.38973 19.6576 5.86372 19.0778C5.31737 18.4756 5.04947 17.5948 5.39909 16.6808ZM12 15C9.72346 15 7.89905 15.7433 7.26709 17.3954C7.21826 17.523 7.25506 17.6349 7.34496 17.734C7.47492 17.8772 7.71694 18 8 18H16C16.2831 18 16.5251 17.8772 16.655 17.734C16.7449 17.6349 16.7817 17.523 16.7329 17.3954C16.101 15.7433 14.2765 15 12 15Z" fill="#0F0F0F"/>
</svg>